<?xml version="1.0" standalone="no"?>
<!DOCTYPE svg PUBLIC "-//W3C//DTD SVG 20010904//EN"
 "http://www.w3.org/TR/2001/REC-SVG-20010904/DTD/svg10.dtd">
<svg version="1.0" xmlns="http://www.w3.org/2000/svg"
 width="960.000000pt" height="960.000000pt" viewBox="0 0 960.000000 960.000000"
 preserveAspectRatio="xMidYMid meet">

<g transform="translate(0.000000,960.000000) scale(0.100000,-0.100000)"
fill="#000000" stroke="none">
<path d="M6136 7278 c-8 -18 -37 -82 -66 -143 -29 -60 -73 -155 -99 -210 -26
-55 -92 -196 -146 -312 l-100 -213 -1036 0 -1036 0 -15 -37 c-13 -32 -186
-417 -270 -603 -14 -30 -46 -102 -72 -160 l-46 -105 -1243 3 c-683 1 -1252 0
-1264 -3 -17 -4 -67 -97 -243 -451 -121 -246 -219 -448 -217 -451 2 -2 229 -7
504 -11 l499 -7 -303 -675 c-167 -371 -394 -877 -505 -1125 -111 -247 -203
-453 -205 -457 -5 -9 519 -10 837 -2 l255 7 138 311 c76 171 301 678 501 1126
l363 815 234 5 c129 3 468 7 754 8 285 1 522 6 526 10 4 4 40 86 82 182 41 96
128 298 192 448 l118 272 523 0 c326 0 524 -4 524 -10 0 -9 -50 -126 -107
-250 -14 -30 -84 -188 -155 -350 -72 -162 -177 -398 -233 -525 l-102 -230
-1042 -3 -1042 -2 -31 -68 c-17 -37 -109 -240 -204 -452 l-172 -385 1012 -3
c1037 -3 1472 6 1651 33 300 45 484 152 614 355 27 41 79 143 116 225 37 83
78 173 90 200 13 28 96 212 185 410 89 198 172 383 184 410 142 307 457 1020
467 1055 19 68 17 225 -4 286 -32 94 -106 161 -208 188 -49 13 -12 15 434 15
l487 1 -14 -32 c-14 -34 -346 -773 -845 -1879 -83 -185 -151 -341 -151 -347 0
-8 150 -11 523 -12 l522 0 27 62 c14 35 180 407 368 828 188 421 403 903 478
1072 l137 307 300 3 300 3 212 425 c116 234 216 437 222 453 l10 27 -1599 0
-1600 0 -14 -32z"/>
<path d="M8500 4277 c-51 -15 -114 -53 -147 -88 -12 -13 -34 -51 -49 -84 -105
-227 89 -479 333 -434 74 14 118 37 170 91 59 61 86 127 87 214 1 165 -125
300 -289 310 -33 2 -80 -2 -105 -9z m197 -55 c64 -33 100 -69 129 -128 53
-109 29 -230 -62 -314 -58 -53 -102 -71 -179 -72 -146 -3 -269 119 -270 267
-1 196 212 333 382 247z"/>
<path d="M8450 3975 c0 -158 1 -165 20 -165 18 0 20 7 20 70 l0 70 48 2 c104
3 122 -8 122 -73 0 -52 9 -69 35 -69 22 0 23 2 14 32 -5 18 -9 49 -9 69 0 20
-7 42 -15 49 -13 11 -12 15 5 37 28 36 26 88 -5 118 -23 23 -31 25 -130 25
l-105 0 0 -165z m200 115 c5 -8 10 -30 10 -48 0 -40 -25 -52 -111 -52 l-59 0
0 61 0 61 76 -4 c52 -2 78 -8 84 -18z"/>
<path d="M7947 3219 c-26 -18 -46 -34 -44 -36 3 -2 34 4 70 13 60 15 65 18 56
35 -13 26 -26 24 -82 -12z"/>
<path d="M5025 3140 c-48 -41 -42 -50 16 -26 29 12 37 12 62 -1 49 -25 54 -10
11 30 l-42 38 -47 -41z"/>
<path d="M6396 3144 c-31 -20 -56 -38 -54 -40 5 -4 118 25 136 35 10 6 8 11
-6 24 -17 16 -21 15 -76 -19z"/>
<path d="M7843 3157 c8 -26 69 -57 102 -52 38 5 72 23 80 44 9 22 0 23 -44 5
-23 -9 -49 -14 -59 -11 -9 3 -32 10 -50 16 -25 7 -32 7 -29 -2z"/>
<path d="M6544 3105 c-4 -10 -20 -15 -45 -15 -37 0 -38 -1 -29 -26 11 -28 13
-176 4 -212 -7 -26 -51 -52 -89 -52 -14 0 -37 11 -50 25 -23 22 -25 31 -25
125 0 56 5 110 10 121 10 17 7 19 -36 19 -40 0 -45 -2 -39 -17 3 -10 6 -65 6
-123 -1 -87 2 -110 19 -137 32 -53 107 -64 193 -28 10 4 17 3 17 -4 0 -6 15
-11 33 -11 l32 0 -3 136 -4 137 28 22 c18 14 25 27 21 38 -8 21 -36 22 -43 2z"/>
<path d="M3816 3085 c-82 -29 -129 -87 -129 -159 0 -92 71 -157 178 -164 74
-5 139 21 175 71 24 32 37 100 26 141 -8 32 -51 83 -85 101 -42 21 -120 26
-165 10z m131 -50 c13 -9 33 -30 43 -48 51 -83 -8 -187 -105 -187 -105 0 -169
110 -115 198 36 59 117 76 177 37z"/>
<path d="M4274 3090 c-95 -13 -151 -85 -142 -180 3 -28 14 -64 25 -78 30 -41
98 -72 161 -72 64 0 87 11 107 50 l15 29 -41 -14 c-90 -32 -159 -12 -194 55
-45 87 22 180 119 167 23 -3 51 -9 64 -13 19 -6 22 -3 22 24 0 29 -2 30 -48
34 -27 1 -66 1 -88 -2z"/>
<path d="M5023 3090 c-48 -11 -95 -42 -121 -81 -20 -28 -23 -44 -20 -92 4 -46
10 -63 34 -88 37 -40 68 -55 125 -64 83 -12 169 28 204 96 8 15 15 51 15 78 0
44 -5 56 -36 90 -48 54 -127 78 -201 61z m105 -50 c95 -58 91 -186 -6 -227
-112 -47 -226 83 -162 185 36 59 110 77 168 42z"/>
<path d="M6751 3089 c-75 -15 -115 -52 -132 -126 -24 -109 62 -202 189 -203
64 0 87 11 107 50 l15 29 -41 -14 c-60 -22 -121 -19 -153 6 -56 44 -70 110
-37 165 31 51 92 64 179 38 19 -6 22 -3 22 25 0 29 -2 31 -39 31 -22 0 -45 2
-53 4 -7 2 -33 0 -57 -5z"/>
<path d="M8725 3091 c-92 -16 -147 -63 -161 -139 -15 -78 43 -159 128 -183 36
-9 193 -7 204 3 6 7 7 163 1 161 -4 -2 -19 -3 -34 -3 -28 0 -28 0 -25 -59 3
-54 2 -59 -20 -64 -40 -11 -70 -8 -115 14 -92 45 -101 169 -15 213 55 27 99
28 165 1 15 -6 17 -3 15 18 -2 15 -6 28 -8 30 -11 9 -98 14 -135 8z"/>
<path d="M2219 3072 c17 -31 14 -101 -4 -108 -20 -8 -19 -31 1 -42 13 -7 15
-21 12 -68 -2 -32 -7 -66 -11 -74 -6 -13 6 -15 80 -13 102 3 157 20 199 64 26
27 29 37 29 99 0 59 -3 72 -25 95 -43 46 -78 58 -189 63 -102 5 -103 4 -92
-16z m160 -28 c66 -14 105 -87 81 -158 -15 -47 -63 -76 -124 -76 l-46 0 0 60
0 60 55 0 c42 0 55 3 55 15 0 12 -13 15 -55 15 l-55 0 0 45 c0 43 1 45 29 45
16 0 42 -3 60 -6z"/>
<path d="M2703 3076 c7 -17 -95 -260 -120 -288 -15 -17 -13 -18 32 -18 35 0
46 3 38 11 -17 17 15 89 45 100 13 5 43 9 66 9 43 0 44 -1 65 -51 11 -28 18
-55 15 -60 -3 -5 16 -9 42 -9 l46 0 -17 26 c-10 15 -44 86 -76 158 l-58 131
-42 3 c-34 3 -41 1 -36 -12z m73 -148 c-13 -7 -63 -5 -71 4 -3 3 4 27 16 54
l22 49 22 -50 c17 -37 19 -52 11 -57z"/>
<path d="M3000 3071 c5 -11 10 -74 10 -141 0 -67 -5 -130 -10 -141 -10 -18 -7
-19 40 -19 48 0 50 1 39 21 -7 14 -10 70 -7 160 l3 139 -43 0 c-39 0 -42 -2
-32 -19z"/>
<path d="M3311 3069 c7 -14 10 -70 7 -160 l-3 -139 43 0 c39 0 42 2 32 19 -5
11 -10 45 -10 75 l0 56 91 0 91 0 -4 -75 -3 -75 42 0 c41 0 42 1 33 26 -6 14
-10 74 -10 134 0 60 4 120 10 134 9 25 8 26 -33 26 l-42 0 0 -61 0 -61 -67 0
c-38 1 -77 1 -88 1 -17 1 -20 8 -20 42 0 22 5 49 10 60 10 18 7 19 -40 19 -48
0 -50 -1 -39 -21z"/>
<path d="M4596 3068 c-9 -36 -8 -38 20 -28 14 6 39 10 55 10 l29 0 0 -121 c0
-66 -5 -129 -10 -140 -10 -18 -7 -19 40 -19 47 0 50 1 40 19 -5 11 -10 74 -10
140 l0 121 26 0 c14 0 34 -5 45 -10 16 -9 21 -7 29 15 6 15 10 28 10 31 0 2
-60 4 -134 4 -130 0 -134 -1 -140 -22z"/>
<path d="M5310 3081 c0 -6 5 -13 10 -16 13 -8 13 -251 0 -276 -10 -17 -7 -19
35 -19 43 0 45 1 35 20 -6 11 -10 61 -8 116 l3 96 93 -110 c52 -60 107 -117
123 -126 l29 -17 0 148 c0 118 3 153 16 171 15 22 15 22 -36 22 -51 0 -51 0
-36 -22 12 -17 16 -47 16 -118 l-1 -95 -49 55 c-28 30 -73 83 -102 118 -47 56
-55 62 -90 62 -21 0 -38 -4 -38 -9z"/>
<path d="M5878 3026 c3 -44 1 -66 -7 -66 -6 0 -11 -9 -11 -20 0 -11 5 -20 11
-20 8 0 10 -24 7 -75 l-3 -75 85 0 c73 0 94 4 138 26 67 33 97 85 89 152 -10
94 -73 135 -217 140 l-96 4 4 -66z m176 10 c46 -19 66 -52 66 -106 0 -26 -7
-56 -16 -69 -20 -29 -72 -51 -118 -51 -32 0 -36 3 -41 34 -4 18 -5 44 -3 57 3
21 9 24 56 27 41 2 52 7 52 20 0 14 -10 17 -52 17 -52 0 -53 1 -54 30 0 17 1
36 4 43 6 16 65 15 106 -2z"/>
<path d="M7090 3081 c0 -5 -3 -17 -6 -25 -6 -14 1 -16 50 -10 l56 7 0 -122 c0
-67 -5 -131 -10 -142 -10 -18 -7 -19 42 -19 40 0 49 3 40 12 -8 8 -12 54 -12
140 l0 128 33 0 c18 0 38 -5 45 -12 12 -12 12 -12 27 37 4 13 -15 15 -130 15
-75 0 -135 -4 -135 -9z"/>
<path d="M7385 2930 l0 -160 43 0 c41 0 43 1 35 23 -8 22 -10 114 -2 121 2 3
40 6 84 7 l80 2 9 -32 c6 -20 5 -48 -1 -76 l-10 -45 41 0 41 0 0 160 0 160
-42 0 -41 0 9 -36 c6 -19 9 -47 7 -61 -3 -26 -3 -27 -93 -27 l-90 -1 0 35 c0
19 4 47 8 63 7 26 6 27 -35 27 l-43 0 0 -160z"/>
<path d="M7890 3069 c0 -24 -71 -195 -106 -256 l-25 -43 41 0 c35 0 40 3 40
24 0 13 7 40 15 60 l16 37 62 -3 c60 -3 63 -4 79 -38 10 -19 16 -45 14 -57 -3
-21 1 -23 46 -23 50 0 52 3 23 40 -6 8 -22 40 -34 70 -13 30 -39 90 -59 133
-35 77 -35 77 -73 77 -33 0 -39 -3 -39 -21z m68 -89 l21 -50 -46 0 c-32 0 -44
4 -40 13 2 6 10 29 18 50 7 20 16 37 20 37 3 0 16 -22 27 -50z"/>
<path d="M8190 3071 c5 -11 10 -74 10 -141 0 -67 -5 -130 -10 -141 -10 -17 -7
-19 34 -19 l45 0 -15 28 c-15 30 -20 187 -5 196 4 3 49 -43 99 -102 50 -59
105 -115 122 -125 l30 -18 0 151 c0 85 5 160 10 171 10 17 7 19 -30 19 -38 0
-40 -2 -30 -20 6 -12 10 -61 8 -117 l-3 -98 -100 118 c-95 111 -102 117 -138
117 -34 0 -37 -2 -27 -19z"/>
<path d="M2734 2735 c-8 -19 3 -35 26 -35 19 0 30 17 23 38 -6 17 -42 15 -49
-3z"/>
<path d="M3860 2734 c-11 -12 -10 -18 3 -32 16 -15 18 -15 34 0 13 14 14 20 3
32 -7 9 -16 16 -20 16 -4 0 -13 -7 -20 -16z"/>
<path d="M2210 2614 c-6 -14 -10 -27 -10 -28 0 -2 23 -1 50 2 l50 5 1 -109 c1
-60 1 -111 1 -114 0 -3 -3 -15 -7 -27 -6 -22 -3 -23 40 -23 42 0 45 2 35 19
-5 11 -10 71 -10 134 l0 115 29 4 c17 2 37 0 46 -4 11 -7 18 -3 25 17 6 15 10
28 10 30 0 2 -56 4 -125 4 -125 0 -126 0 -135 -25z"/>
<path d="M2565 2621 c-111 -50 -137 -184 -53 -263 118 -110 338 -33 338 119 0
38 -28 97 -59 120 -56 45 -157 56 -226 24z m153 -35 c61 -34 85 -148 41 -195
-72 -77 -190 -54 -223 43 -22 64 5 134 59 157 31 12 97 10 123 -5z"/>
<path d="M2870 2632 c0 -4 5 -13 11 -19 12 -12 8 -258 -5 -285 -7 -16 -2 -18
38 -18 l46 0 -15 24 c-12 18 -15 46 -13 122 l3 98 94 -110 c51 -60 106 -117
122 -127 l28 -18 5 43 c4 24 5 88 4 143 -2 55 0 112 5 128 7 26 6 27 -33 27
-36 0 -40 -2 -31 -18 11 -20 19 -197 10 -206 -3 -4 -42 35 -85 86 -112 132
-119 138 -154 138 -16 0 -30 -4 -30 -8z"/>
<path d="M3379 2621 c14 -25 11 -265 -3 -295 -9 -18 -4 -18 85 -14 137 6 200
44 218 131 10 43 -5 107 -32 136 -34 37 -83 52 -185 58 l-94 6 11 -22z m184
-43 c35 -14 57 -55 57 -109 0 -57 -47 -104 -114 -114 -36 -6 -50 -4 -57 6 -4
8 -7 60 -6 117 1 77 6 105 17 112 15 9 59 4 103 -12z"/>
<path d="M3716 2623 c4 -10 11 -70 14 -133 3 -63 10 -123 14 -133 18 -39 102
-59 158 -38 13 5 44 5 71 1 45 -7 47 -6 40 14 -11 28 -10 255 0 284 8 21 6 22
-44 22 -45 0 -50 -2 -39 -15 9 -11 13 -49 11 -128 -1 -100 -4 -114 -22 -129
-48 -41 -128 -9 -130 50 -2 119 1 195 10 206 8 10 -1 13 -41 15 -46 2 -50 0
-42 -16z"/>
<path d="M4145 2626 c-88 -38 -124 -168 -67 -246 28 -39 98 -70 158 -70 67 0
81 6 100 43 15 28 15 29 -1 23 -67 -25 -104 -28 -141 -10 -82 41 -106 134 -51
192 36 38 73 45 134 27 26 -8 49 -15 51 -15 8 0 0 48 -10 58 -16 16 -135 15
-173 -2z"/>
<path d="M4462 2612 l-10 -28 55 4 54 5 -3 -124 c-2 -68 -7 -131 -11 -139 -6
-12 2 -15 43 -15 53 0 58 3 38 23 -9 9 -14 55 -17 132 l-3 120 40 0 c23 0 44
-5 48 -12 8 -13 22 14 23 45 1 15 -11 17 -123 17 l-124 0 -10 -28z"/>
<path d="M4746 2617 c10 -29 11 -234 2 -269 -6 -27 -6 -28 37 -28 l44 0 -10
29 c-6 16 -9 49 -7 72 l3 44 85 0 85 0 -1 -72 0 -71 38 -4 c33 -3 37 -1 32 14
-7 25 -7 263 1 288 6 18 2 20 -34 20 l-40 0 6 -65 6 -65 -93 0 -92 0 4 48 c2
26 6 53 9 61 3 11 -7 15 -39 17 -40 2 -42 1 -36 -19z"/>
<path d="M5215 2620 c6 -20 -86 -250 -112 -281 -13 -15 -10 -17 26 -21 39 -3
41 -2 41 23 0 36 20 89 33 90 7 1 34 2 61 2 46 2 49 1 68 -37 11 -21 18 -48
16 -60 -4 -19 -1 -21 43 -18 l48 4 -16 25 c-10 14 -42 85 -73 157 l-56 131
-42 2 c-38 2 -42 0 -37 -17z m64 -87 c8 -21 16 -44 18 -50 4 -9 -7 -13 -36
-13 -29 0 -41 4 -41 15 0 18 31 85 40 85 3 0 12 -17 19 -37z"/>
<path d="M5470 2632 c0 -5 5 -13 11 -19 12 -12 8 -258 -5 -285 -7 -16 -3 -18
34 -18 37 0 41 2 34 18 -13 26 -17 225 -5 218 5 -4 51 -55 101 -115 50 -60
102 -113 116 -119 l24 -12 0 143 c0 104 4 149 14 170 l15 27 -45 -2 c-45 -1
-52 -6 -34 -24 7 -7 10 -51 8 -109 l-3 -99 -84 100 c-47 54 -90 105 -97 113
-14 15 -84 26 -84 13z"/>
<path d="M5910 2613 c-69 -36 -93 -77 -87 -151 2 -32 12 -63 23 -79 43 -57
135 -83 248 -69 l56 7 0 80 0 79 -36 0 c-31 0 -35 -2 -29 -21 9 -27 9 -85 0
-98 -9 -16 -92 -13 -125 4 -131 68 -82 243 65 232 28 -2 58 -7 68 -11 14 -7
17 -3 17 23 l0 31 -73 0 c-60 0 -83 -5 -127 -27z"/>
<path d="M6317 2543 c5 -149 11 -177 39 -204 25 -24 53 -27 164 -18 14 1 34
-1 46 -4 11 -3 25 -2 30 1 5 4 9 78 9 164 l0 158 -42 -2 c-37 -1 -41 -3 -32
-19 5 -10 9 -65 9 -123 0 -101 -1 -105 -26 -125 -35 -27 -85 -27 -110 0 -15
17 -20 40 -22 115 -2 52 1 108 7 124 l10 30 -42 0 -43 0 3 -97z"/>
<path d="M6655 2620 c12 -13 15 -44 15 -139 0 -67 -5 -131 -10 -142 -10 -17
-7 -19 30 -19 38 0 40 2 30 20 -6 11 -10 61 -8 116 l3 96 93 -115 c52 -63 104
-119 118 -126 l24 -11 0 152 c0 121 3 155 15 168 14 15 11 17 -31 18 -41 2
-45 0 -38 -15 9 -21 17 -134 12 -184 l-3 -33 -90 109 c-49 61 -94 113 -100
117 -5 4 -25 7 -43 6 -29 -1 -31 -3 -17 -18z"/>
<path d="M7011 2618 c7 -13 10 -72 8 -162 l-4 -141 38 4 c32 3 37 6 32 22 -11
33 -7 270 4 283 9 10 0 13 -39 13 -47 1 -49 0 -39 -19z"/>
<path d="M7132 2618 c8 -13 38 -82 67 -155 36 -91 60 -136 76 -147 14 -9 26
-12 30 -6 6 10 135 321 135 327 0 1 -15 3 -34 3 -32 0 -34 -2 -38 -42 -5 -43
-65 -198 -77 -198 -3 0 -27 53 -52 118 l-45 117 -39 3 c-38 3 -38 3 -23 -20z"/>
<path d="M7461 2619 c7 -14 10 -70 7 -163 l-3 -141 101 3 c95 3 102 5 108 25
9 35 8 37 -20 27 -14 -6 -48 -10 -75 -10 l-49 0 0 56 0 57 40 -7 c38 -6 40 -5
40 19 0 23 -4 25 -40 25 l-40 0 0 40 c0 25 5 40 13 41 18 2 49 -1 75 -7 19 -4
22 0 22 26 l0 30 -95 0 c-94 0 -96 0 -84 -21z"/>
<path d="M7705 2482 l0 -160 42 -4 c36 -3 40 -1 32 14 -11 20 -12 138 -1 138
4 0 25 -26 47 -56 53 -74 79 -94 126 -94 l38 0 -61 57 c-69 66 -88 95 -68 101
8 3 24 15 37 28 31 31 30 74 -3 105 -22 21 -37 24 -107 27 l-82 4 0 -160z
m150 95 c23 -33 -15 -86 -62 -87 -23 0 -32 28 -24 82 5 41 58 45 86 5z"/>
<path d="M8060 2633 c-31 -12 -60 -47 -60 -73 0 -40 30 -72 99 -104 70 -34 85
-60 51 -88 -29 -24 -76 -23 -124 3 l-39 20 7 -28 c10 -40 19 -46 79 -51 72 -6
124 18 144 67 21 50 4 77 -76 121 -74 40 -91 61 -72 84 17 21 80 21 109 0 23
-16 23 -16 20 17 l-3 34 -60 2 c-33 1 -67 -1 -75 -4z"/>
<path d="M8236 2623 c13 -27 17 -259 5 -282 -10 -17 -7 -19 34 -23 40 -3 44
-1 39 15 -8 26 -8 260 1 286 6 19 3 21 -40 21 -41 0 -46 -2 -39 -17z"/>
<path d="M8337 2612 c-3 -15 -4 -28 -3 -29 1 -1 19 2 39 8 21 5 42 7 47 4 13
-8 13 -235 1 -255 -14 -21 -6 -26 38 -22 36 4 39 6 31 22 -6 10 -10 71 -10
136 l0 117 44 -5 c44 -5 55 4 56 44 0 4 -53 7 -119 7 l-119 1 -5 -28z"/>
<path d="M8610 2636 c0 -2 27 -43 60 -92 53 -77 60 -94 60 -135 0 -26 -4 -58
-9 -71 -8 -22 -7 -23 38 -23 47 0 47 0 34 25 -29 55 -17 103 47 197 32 48 55
92 51 96 -5 5 -21 7 -37 5 -21 -2 -28 -8 -26 -20 1 -10 -12 -40 -31 -68 -38
-56 -36 -56 -81 23 -15 27 -39 52 -52 58 -26 9 -54 12 -54 5z"/>
</g>
</svg>
